<svg width="20" height="21" viewBox="0 0 20 21" fill="none" xmlns="http://www.w3.org/2000/svg">
<path id="Vector" d="M19.733 5.76339L13.6193 0.959821C13.4489 0.825893 13.2188 0.75 12.9773 0.75H0.909091C0.40625 0.75 0 1.0692 0 1.46429V20.0357C0 20.4308 0.40625 20.75 0.909091 20.75H19.0909C19.5938 20.75 20 20.4308 20 20.0357V6.27009C20 6.08036 19.9034 5.89732 19.733 5.76339ZM17.9034 6.59821H12.5568V2.39732L17.9034 6.59821ZM17.9545 19.1429H2.04545V2.35714H10.625V7.17857C10.625 7.42721 10.7507 7.66567 10.9745 7.84148C11.1982 8.0173 11.5017 8.11607 11.8182 8.11607H17.9545V19.1429ZM10.9091 9.85714C10.9091 9.75893 10.8068 9.67857 10.6818 9.67857H9.31818C9.19318 9.67857 9.09091 9.75893 9.09091 9.85714V12.2679H6.02273C5.89773 12.2679 5.79545 12.3482 5.79545 12.4464V13.5179C5.79545 13.6161 5.89773 13.6964 6.02273 13.6964H9.09091V16.1071C9.09091 16.2054 9.19318 16.2857 9.31818 16.2857H10.6818C10.8068 16.2857 10.9091 16.2054 10.9091 16.1071V13.6964H13.9773C14.1023 13.6964 14.2045 13.6161 14.2045 13.5179V12.4464C14.2045 12.3482 14.1023 12.2679 13.9773 12.2679H10.9091V9.85714Z" fill="black"/>
</svg>
