<svg width="11" height="20" viewBox="0 0 11 20" fill="none" xmlns="http://www.w3.org/2000/svg">
<path id="Vector" fill-rule="evenodd" clip-rule="evenodd" d="M0.255896 10.6182C0.0920376 10.4541 0 10.2317 0 9.99985C0 9.76798 0.0920376 9.54558 0.255896 9.38152L9.0059 0.63152C9.086 0.545553 9.1826 0.4766 9.28994 0.428776C9.39727 0.380952 9.51313 0.355236 9.63062 0.353164C9.74811 0.351091 9.86481 0.372703 9.97376 0.416711C10.0827 0.460718 10.1817 0.52622 10.2648 0.609309C10.3479 0.692398 10.4134 0.79137 10.4574 0.900323C10.5014 1.00928 10.523 1.12598 10.5209 1.24346C10.5188 1.36095 10.4931 1.47682 10.4453 1.58415C10.3975 1.69148 10.3285 1.78808 10.2426 1.86819L2.1109 9.99985L10.2426 18.1315C10.3285 18.2116 10.3975 18.3082 10.4453 18.4156C10.4931 18.5229 10.5188 18.6388 10.5209 18.7562C10.523 18.8737 10.5014 18.9904 10.4574 19.0994C10.4134 19.2083 10.3479 19.3073 10.2648 19.3904C10.1817 19.4735 10.0827 19.539 9.97376 19.583C9.86481 19.627 9.74811 19.6486 9.63062 19.6465C9.51313 19.6445 9.39727 19.6188 9.28994 19.5709C9.1826 19.5231 9.086 19.4542 9.0059 19.3682L0.255896 10.6182Z" fill="black"/>
</svg>
